<mxfile host="65bd71144e">
    <diagram id="1MIPOJmFVDo4tr6mYoTl" name="WorkFlow">
        <mxGraphModel dx="1364" dy="839" grid="1" gridSize="10" guides="1" tooltips="1" connect="1" arrows="1" fold="1" page="1" pageScale="1" pageWidth="2336" pageHeight="1654" math="0" shadow="0">
            <root>
                <mxCell id="0"/>
                <mxCell id="1" parent="0"/>
                <mxCell id="1qdFYAOTT3NAzUHvfduM-24" value="" style="rounded=1;whiteSpace=wrap;html=1;strokeColor=rgb(240, 240, 240);fontFamily=Helvetica;fontSize=25;fontColor=rgb(240, 240, 240);fillColor=rgb(24, 20, 29);" parent="1" vertex="1">
                    <mxGeometry x="380" y="10" width="1190" height="330" as="geometry"/>
                </mxCell>
                <mxCell id="5" value="&lt;font style=&quot;font-size: 26px;&quot;&gt;SENSORISTICA&lt;/font&gt;" style="rounded=1;whiteSpace=wrap;html=1;fillColor=#6d8764;fontColor=#ffffff;strokeColor=#3A5431;" parent="1" vertex="1">
                    <mxGeometry x="50" y="120" width="260" height="150" as="geometry"/>
                </mxCell>
                <mxCell id="tAKxu6Cqi1IX6maSKKCZ-24" style="edgeStyle=none;html=1;entryX=0;entryY=0.5;entryDx=0;entryDy=0;fontSize=18;" parent="1" source="6" target="tAKxu6Cqi1IX6maSKKCZ-22" edge="1">
                    <mxGeometry relative="1" as="geometry"/>
                </mxCell>
                <mxCell id="tAKxu6Cqi1IX6maSKKCZ-25" style="edgeStyle=none;html=1;entryX=0;entryY=0.5;entryDx=0;entryDy=0;fontSize=18;" parent="1" source="6" target="tAKxu6Cqi1IX6maSKKCZ-23" edge="1">
                    <mxGeometry relative="1" as="geometry"/>
                </mxCell>
                <mxCell id="6" value="&lt;font style=&quot;font-size: 25px;&quot;&gt;NAVIGAZIONE&lt;br&gt;&lt;/font&gt;" style="rounded=1;whiteSpace=wrap;html=1;fillColor=#6d8764;fontColor=#ffffff;strokeColor=#3A5431;" parent="1" vertex="1">
                    <mxGeometry x="40" y="670" width="250" height="130" as="geometry"/>
                </mxCell>
                <mxCell id="11" value="" style="endArrow=none;html=1;" parent="1" edge="1">
                    <mxGeometry width="50" height="50" relative="1" as="geometry">
                        <mxPoint y="560" as="sourcePoint"/>
                        <mxPoint x="560" y="560" as="targetPoint"/>
                    </mxGeometry>
                </mxCell>
                <mxCell id="tAKxu6Cqi1IX6maSKKCZ-12" value="" style="endArrow=none;html=1;" parent="1" edge="1">
                    <mxGeometry width="50" height="50" relative="1" as="geometry">
                        <mxPoint y="1120" as="sourcePoint"/>
                        <mxPoint x="560" y="1120" as="targetPoint"/>
                    </mxGeometry>
                </mxCell>
                <mxCell id="tAKxu6Cqi1IX6maSKKCZ-14" value="&lt;span style=&quot;font-size: 25px;&quot;&gt;MAPPATURA &lt;br&gt;&lt;br&gt;TOPOLOGICA&lt;/span&gt;" style="rounded=1;whiteSpace=wrap;html=1;fillColor=#6d8764;fontColor=#ffffff;strokeColor=#3A5431;" parent="1" vertex="1">
                    <mxGeometry x="40" y="1300" width="270" height="160" as="geometry"/>
                </mxCell>
                <mxCell id="tAKxu6Cqi1IX6maSKKCZ-22" value="gestire l'errore di odometria dello stato" style="shape=ext;double=1;rounded=1;whiteSpace=wrap;html=1;fontSize=18;fillColor=#e3c800;fontColor=#000000;strokeColor=#B09500;" parent="1" vertex="1">
                    <mxGeometry x="420" y="677.5" width="220" height="72.5" as="geometry"/>
                </mxCell>
                <mxCell id="tAKxu6Cqi1IX6maSKKCZ-23" value="Logica di navigazione" style="shape=ext;double=1;rounded=1;whiteSpace=wrap;html=1;fontSize=18;fillColor=#e3c800;fontColor=#000000;strokeColor=#B09500;" parent="1" vertex="1">
                    <mxGeometry x="420" y="774" width="220" height="72.5" as="geometry"/>
                </mxCell>
                <mxCell id="tAKxu6Cqi1IX6maSKKCZ-42" value="Struttura dell'archivio dei nodi" style="shape=ext;double=1;rounded=1;whiteSpace=wrap;html=1;fontSize=18;fillColor=#e3c800;fontColor=#000000;strokeColor=#B09500;" parent="1" vertex="1">
                    <mxGeometry x="410" y="1180" width="220" height="72.5" as="geometry"/>
                </mxCell>
                <mxCell id="1qdFYAOTT3NAzUHvfduM-11" value="&lt;font style=&quot;font-size: 25px;&quot;&gt;OBSTACLE AVOIDANCE&lt;br&gt;&lt;/font&gt;" style="rounded=1;whiteSpace=wrap;html=1;fillColor=#6d8764;fontColor=#ffffff;strokeColor=#3A5431;" parent="1" vertex="1">
                    <mxGeometry x="50" y="900" width="250" height="140" as="geometry"/>
                </mxCell>
                <mxCell id="1qdFYAOTT3NAzUHvfduM-12" value="" style="shape=cross;whiteSpace=wrap;html=1;rounded=1;strokeColor=#3A5431;fontFamily=Helvetica;fontSize=25;fontColor=#ffffff;fillColor=#6d8764;size=0.26666666666666516;" parent="1" vertex="1">
                    <mxGeometry x="150" y="820" width="60" height="60" as="geometry"/>
                </mxCell>
                <mxCell id="kWpN5N-EWTwVVMFlQXsT-16" style="edgeStyle=none;html=1;fontFamily=Helvetica;fontSize=20;fontColor=rgb(240, 240, 240);" parent="1" source="1qdFYAOTT3NAzUHvfduM-17" target="1qdFYAOTT3NAzUHvfduM-31" edge="1">
                    <mxGeometry relative="1" as="geometry"/>
                </mxCell>
                <mxCell id="1qdFYAOTT3NAzUHvfduM-17" value="Optical Flow Sensor" style="rounded=1;whiteSpace=wrap;html=1;strokeColor=#C73500;fontFamily=Helvetica;fontSize=25;fontColor=#000000;fillColor=#fa6800;" parent="1" vertex="1">
                    <mxGeometry x="590" y="230" width="180" height="80" as="geometry"/>
                </mxCell>
                <mxCell id="1qdFYAOTT3NAzUHvfduM-26" style="edgeStyle=none;html=1;fontFamily=Helvetica;fontSize=25;fontColor=rgb(240, 240, 240);" parent="1" source="1qdFYAOTT3NAzUHvfduM-18" target="1qdFYAOTT3NAzUHvfduM-25" edge="1">
                    <mxGeometry relative="1" as="geometry"/>
                </mxCell>
                <mxCell id="1qdFYAOTT3NAzUHvfduM-18" value="IMU&lt;br&gt;" style="rounded=1;whiteSpace=wrap;html=1;strokeColor=#C73500;fontFamily=Helvetica;fontSize=25;fontColor=#000000;fillColor=#fa6800;" parent="1" vertex="1">
                    <mxGeometry x="1270" y="245" width="110" height="70" as="geometry"/>
                </mxCell>
                <mxCell id="1qdFYAOTT3NAzUHvfduM-35" style="edgeStyle=none;html=1;fontFamily=Helvetica;fontSize=25;fontColor=rgb(240, 240, 240);" parent="1" source="1qdFYAOTT3NAzUHvfduM-19" target="1qdFYAOTT3NAzUHvfduM-20" edge="1">
                    <mxGeometry relative="1" as="geometry"/>
                </mxCell>
                <mxCell id="1qdFYAOTT3NAzUHvfduM-19" value="Multi-ranger&lt;br&gt;deck&lt;br&gt;&amp;nbsp;(range finders)" style="rounded=1;whiteSpace=wrap;html=1;strokeColor=#C73500;fontFamily=Helvetica;fontSize=25;fontColor=#000000;fillColor=#fa6800;" parent="1" vertex="1">
                    <mxGeometry x="920" y="220" width="230" height="100" as="geometry"/>
                </mxCell>
                <mxCell id="1qdFYAOTT3NAzUHvfduM-20" value="Front/beck/left/right/up&amp;nbsp;&lt;br&gt;distance up to 4 m&lt;br&gt;" style="rounded=1;whiteSpace=wrap;html=1;strokeColor=rgb(240, 240, 240);fontFamily=Helvetica;fontSize=25;fontColor=rgb(240, 240, 240);fillColor=rgb(24, 20, 29);" parent="1" vertex="1">
                    <mxGeometry x="900" y="95" width="290" height="85" as="geometry"/>
                </mxCell>
                <mxCell id="1qdFYAOTT3NAzUHvfduM-22" value="SENSORISTICA REALE CRAZYFLIE 2.1" style="rounded=0;whiteSpace=wrap;html=1;strokeColor=rgb(240, 240, 240);fontFamily=Helvetica;fontSize=25;fontColor=rgb(240, 240, 240);fillColor=rgb(24, 20, 29);" parent="1" vertex="1">
                    <mxGeometry x="420" y="20" width="520" height="60" as="geometry"/>
                </mxCell>
                <mxCell id="1qdFYAOTT3NAzUHvfduM-25" value="Front/beck/left/right/up&lt;br&gt;- BMI088 Accel + Gyro&lt;br&gt;- BMP388 Pressure&lt;br&gt;by Bosch" style="rounded=1;whiteSpace=wrap;html=1;strokeColor=rgb(240, 240, 240);fontFamily=Helvetica;fontSize=25;fontColor=rgb(240, 240, 240);fillColor=rgb(24, 20, 29);" parent="1" vertex="1">
                    <mxGeometry x="1240" y="42.5" width="290" height="137.5" as="geometry"/>
                </mxCell>
                <mxCell id="1qdFYAOTT3NAzUHvfduM-31" value="PMW3901" style="rounded=1;whiteSpace=wrap;html=1;strokeColor=rgb(240, 240, 240);fontFamily=Helvetica;fontSize=25;fontColor=rgb(240, 240, 240);fillColor=rgb(24, 20, 29);" parent="1" vertex="1">
                    <mxGeometry x="420" y="95" width="290" height="85" as="geometry"/>
                </mxCell>
                <mxCell id="1qdFYAOTT3NAzUHvfduM-37" value="&lt;font style=&quot;font-size: 26px;&quot;&gt;STATE OBSERVER&lt;/font&gt;" style="rounded=1;whiteSpace=wrap;html=1;fillColor=#6d8764;fontColor=#ffffff;strokeColor=#3A5431;" parent="1" vertex="1">
                    <mxGeometry x="45" y="370" width="260" height="150" as="geometry"/>
                </mxCell>
                <mxCell id="kWpN5N-EWTwVVMFlQXsT-17" value="APPROFONDIMENTO OPTICAL FLOW SENSOR" style="rounded=1;whiteSpace=wrap;html=1;strokeColor=#BD7000;fontFamily=Helvetica;fontSize=20;fontColor=#000000;fillColor=#f0a30a;" parent="1" vertex="1">
                    <mxGeometry x="1640" y="55" width="470" height="40" as="geometry"/>
                </mxCell>
                <mxCell id="kWpN5N-EWTwVVMFlQXsT-51" value="VEDERE DISCORD" style="rounded=1;whiteSpace=wrap;html=1;strokeColor=rgb(240, 240, 240);fontFamily=Helvetica;fontSize=20;fontColor=rgb(240, 240, 240);fillColor=rgb(24, 20, 29);" parent="1" vertex="1">
                    <mxGeometry x="2110" y="53" width="190" height="45" as="geometry"/>
                </mxCell>
                <mxCell id="kWpN5N-EWTwVVMFlQXsT-52" value="" style="shape=cross;whiteSpace=wrap;html=1;rounded=1;strokeColor=#3A5431;fontFamily=Helvetica;fontSize=25;fontColor=#ffffff;fillColor=#6d8764;size=0.26666666666666516;" parent="1" vertex="1">
                    <mxGeometry x="150" y="291" width="60" height="60" as="geometry"/>
                </mxCell>
                <mxCell id="12" value="def _addDecorations" style="shape=ext;double=1;rounded=1;whiteSpace=wrap;html=1;fontSize=18;fillColor=#e3c800;fontColor=#000000;strokeColor=#B09500;" parent="1" vertex="1">
                    <mxGeometry x="590" y="1490" width="220" height="72.5" as="geometry"/>
                </mxCell>
                <mxCell id="Gvsr9k-R00faMx7Uoc_4-13" value="&lt;p style=&quot;border: 0px solid rgb(227, 227, 227); box-sizing: border-box; --tw-border-spacing-x: 0; --tw-border-spacing-y: 0; --tw-translate-x: 0; --tw-translate-y: 0; --tw-rotate: 0; --tw-skew-x: 0; --tw-skew-y: 0; --tw-scale-x: 1; --tw-scale-y: 1; --tw-pan-x: ; --tw-pan-y: ; --tw-pinch-zoom: ; --tw-scroll-snap-strictness: proximity; --tw-gradient-from-position: ; --tw-gradient-via-position: ; --tw-gradient-to-position: ; --tw-ordinal: ; --tw-slashed-zero: ; --tw-numeric-figure: ; --tw-numeric-spacing: ; --tw-numeric-fraction: ; --tw-ring-inset: ; --tw-ring-offset-width: 0px; --tw-ring-offset-color: #fff; --tw-ring-color: rgba(69,89,164,.5); --tw-ring-offset-shadow: 0 0 transparent; --tw-ring-shadow: 0 0 transparent; --tw-shadow: 0 0 transparent; --tw-shadow-colored: 0 0 transparent; --tw-blur: ; --tw-brightness: ; --tw-contrast: ; --tw-grayscale: ; --tw-hue-rotate: ; --tw-invert: ; --tw-saturate: ; --tw-sepia: ; --tw-drop-shadow: ; --tw-backdrop-blur: ; --tw-backdrop-brightness: ; --tw-backdrop-contrast: ; --tw-backdrop-grayscale: ; --tw-backdrop-hue-rotate: ; --tw-backdrop-invert: ; --tw-backdrop-opacity: ; --tw-backdrop-saturate: ; --tw-backdrop-sepia: ; --tw-contain-size: ; --tw-contain-layout: ; --tw-contain-paint: ; --tw-contain-style: ; margin: 0px 0px 1.25em; color: rgb(236, 236, 236); font-family: Söhne, ui-sans-serif, system-ui, -apple-system, &amp;quot;Segoe UI&amp;quot;, Roboto, Ubuntu, Cantarell, &amp;quot;Noto Sans&amp;quot;, sans-serif, &amp;quot;Helvetica Neue&amp;quot;, Arial, &amp;quot;Apple Color Emoji&amp;quot;, &amp;quot;Segoe UI Emoji&amp;quot;, &amp;quot;Segoe UI Symbol&amp;quot;, &amp;quot;Noto Color Emoji&amp;quot;; text-align: start; background-color: rgb(33, 33, 33); font-size: 22px;&quot;&gt;&lt;font style=&quot;font-size: 22px;&quot;&gt;Il sensore di visual flow PMW3901 utilizzato nel Crazyflie 2.1 restituisce i seguenti output principali al drone:&lt;/font&gt;&lt;/p&gt;&lt;p style=&quot;border: 0px solid rgb(227, 227, 227); box-sizing: border-box; --tw-border-spacing-x: 0; --tw-border-spacing-y: 0; --tw-translate-x: 0; --tw-translate-y: 0; --tw-rotate: 0; --tw-skew-x: 0; --tw-skew-y: 0; --tw-scale-x: 1; --tw-scale-y: 1; --tw-pan-x: ; --tw-pan-y: ; --tw-pinch-zoom: ; --tw-scroll-snap-strictness: proximity; --tw-gradient-from-position: ; --tw-gradient-via-position: ; --tw-gradient-to-position: ; --tw-ordinal: ; --tw-slashed-zero: ; --tw-numeric-figure: ; --tw-numeric-spacing: ; --tw-numeric-fraction: ; --tw-ring-inset: ; --tw-ring-offset-width: 0px; --tw-ring-offset-color: #fff; --tw-ring-color: rgba(69,89,164,.5); --tw-ring-offset-shadow: 0 0 transparent; --tw-ring-shadow: 0 0 transparent; --tw-shadow: 0 0 transparent; --tw-shadow-colored: 0 0 transparent; --tw-blur: ; --tw-brightness: ; --tw-contrast: ; --tw-grayscale: ; --tw-hue-rotate: ; --tw-invert: ; --tw-saturate: ; --tw-sepia: ; --tw-drop-shadow: ; --tw-backdrop-blur: ; --tw-backdrop-brightness: ; --tw-backdrop-contrast: ; --tw-backdrop-grayscale: ; --tw-backdrop-hue-rotate: ; --tw-backdrop-invert: ; --tw-backdrop-opacity: ; --tw-backdrop-saturate: ; --tw-backdrop-sepia: ; --tw-contain-size: ; --tw-contain-layout: ; --tw-contain-paint: ; --tw-contain-style: ; margin: 0px 0px 1.25em; color: rgb(236, 236, 236); font-family: Söhne, ui-sans-serif, system-ui, -apple-system, &amp;quot;Segoe UI&amp;quot;, Roboto, Ubuntu, Cantarell, &amp;quot;Noto Sans&amp;quot;, sans-serif, &amp;quot;Helvetica Neue&amp;quot;, Arial, &amp;quot;Apple Color Emoji&amp;quot;, &amp;quot;Segoe UI Emoji&amp;quot;, &amp;quot;Segoe UI Symbol&amp;quot;, &amp;quot;Noto Color Emoji&amp;quot;; text-align: start; background-color: rgb(33, 33, 33); font-size: 22px;&quot;&gt;&lt;font style=&quot;font-size: 22px;&quot;&gt;&lt;span style=&quot;color: var(--tw-prose-bold); border: 0px solid rgb(227, 227, 227); box-sizing: border-box; --tw-border-spacing-x: 0; --tw-border-spacing-y: 0; --tw-translate-x: 0; --tw-translate-y: 0; --tw-rotate: 0; --tw-skew-x: 0; --tw-skew-y: 0; --tw-scale-x: 1; --tw-scale-y: 1; --tw-pan-x: ; --tw-pan-y: ; --tw-pinch-zoom: ; --tw-scroll-snap-strictness: proximity; --tw-gradient-from-position: ; --tw-gradient-via-position: ; --tw-gradient-to-position: ; --tw-ordinal: ; --tw-slashed-zero: ; --tw-numeric-figure: ; --tw-numeric-spacing: ; --tw-numeric-fraction: ; --tw-ring-inset: ; --tw-ring-offset-width: 0px; --tw-ring-offset-color: #fff; --tw-ring-color: rgba(69,89,164,.5); --tw-ring-offset-shadow: 0 0 transparent; --tw-ring-shadow: 0 0 transparent; --tw-shadow: 0 0 transparent; --tw-shadow-colored: 0 0 transparent; --tw-blur: ; --tw-brightness: ; --tw-contrast: ; --tw-grayscale: ; --tw-hue-rotate: ; --tw-invert: ; --tw-saturate: ; --tw-sepia: ; --tw-drop-shadow: ; --tw-backdrop-blur: ; --tw-backdrop-brightness: ; --tw-backdrop-contrast: ; --tw-backdrop-grayscale: ; --tw-backdrop-hue-rotate: ; --tw-backdrop-invert: ; --tw-backdrop-opacity: ; --tw-backdrop-saturate: ; --tw-backdrop-sepia: ; --tw-contain-size: ; --tw-contain-layout: ; --tw-contain-paint: ; --tw-contain-style: ; font-weight: 600;&quot;&gt;Velocità di Movimento sul Piano (Flow)&lt;/span&gt;: Il sensore misura il movimento relativo del drone rispetto alla superficie sottostante lungo gli assi X e Y. Questi dati vengono forniti come velocità di movimento in pixel per secondo, che possono poi essere convertiti in metri per secondo utilizzando le informazioni sulla distanza dal suolo.&lt;/font&gt;&lt;/p&gt;&lt;p style=&quot;border: 0px solid rgb(227, 227, 227); box-sizing: border-box; --tw-border-spacing-x: 0; --tw-border-spacing-y: 0; --tw-translate-x: 0; --tw-translate-y: 0; --tw-rotate: 0; --tw-skew-x: 0; --tw-skew-y: 0; --tw-scale-x: 1; --tw-scale-y: 1; --tw-pan-x: ; --tw-pan-y: ; --tw-pinch-zoom: ; --tw-scroll-snap-strictness: proximity; --tw-gradient-from-position: ; --tw-gradient-via-position: ; --tw-gradient-to-position: ; --tw-ordinal: ; --tw-slashed-zero: ; --tw-numeric-figure: ; --tw-numeric-spacing: ; --tw-numeric-fraction: ; --tw-ring-inset: ; --tw-ring-offset-width: 0px; --tw-ring-offset-color: #fff; --tw-ring-color: rgba(69,89,164,.5); --tw-ring-offset-shadow: 0 0 transparent; --tw-ring-shadow: 0 0 transparent; --tw-shadow: 0 0 transparent; --tw-shadow-colored: 0 0 transparent; --tw-blur: ; --tw-brightness: ; --tw-contrast: ; --tw-grayscale: ; --tw-hue-rotate: ; --tw-invert: ; --tw-saturate: ; --tw-sepia: ; --tw-drop-shadow: ; --tw-backdrop-blur: ; --tw-backdrop-brightness: ; --tw-backdrop-contrast: ; --tw-backdrop-grayscale: ; --tw-backdrop-hue-rotate: ; --tw-backdrop-invert: ; --tw-backdrop-opacity: ; --tw-backdrop-saturate: ; --tw-backdrop-sepia: ; --tw-contain-size: ; --tw-contain-layout: ; --tw-contain-paint: ; --tw-contain-style: ; margin: 0px 0px 1.25em; color: rgb(236, 236, 236); font-family: Söhne, ui-sans-serif, system-ui, -apple-system, &amp;quot;Segoe UI&amp;quot;, Roboto, Ubuntu, Cantarell, &amp;quot;Noto Sans&amp;quot;, sans-serif, &amp;quot;Helvetica Neue&amp;quot;, Arial, &amp;quot;Apple Color Emoji&amp;quot;, &amp;quot;Segoe UI Emoji&amp;quot;, &amp;quot;Segoe UI Symbol&amp;quot;, &amp;quot;Noto Color Emoji&amp;quot;; text-align: start; background-color: rgb(33, 33, 33); font-size: 22px;&quot;&gt;&lt;font style=&quot;font-size: 22px;&quot;&gt;&lt;span style=&quot;color: var(--tw-prose-bold); border: 0px solid rgb(227, 227, 227); box-sizing: border-box; --tw-border-spacing-x: 0; --tw-border-spacing-y: 0; --tw-translate-x: 0; --tw-translate-y: 0; --tw-rotate: 0; --tw-skew-x: 0; --tw-skew-y: 0; --tw-scale-x: 1; --tw-scale-y: 1; --tw-pan-x: ; --tw-pan-y: ; --tw-pinch-zoom: ; --tw-scroll-snap-strictness: proximity; --tw-gradient-from-position: ; --tw-gradient-via-position: ; --tw-gradient-to-position: ; --tw-ordinal: ; --tw-slashed-zero: ; --tw-numeric-figure: ; --tw-numeric-spacing: ; --tw-numeric-fraction: ; --tw-ring-inset: ; --tw-ring-offset-width: 0px; --tw-ring-offset-color: #fff; --tw-ring-color: rgba(69,89,164,.5); --tw-ring-offset-shadow: 0 0 transparent; --tw-ring-shadow: 0 0 transparent; --tw-shadow: 0 0 transparent; --tw-shadow-colored: 0 0 transparent; --tw-blur: ; --tw-brightness: ; --tw-contrast: ; --tw-grayscale: ; --tw-hue-rotate: ; --tw-invert: ; --tw-saturate: ; --tw-sepia: ; --tw-drop-shadow: ; --tw-backdrop-blur: ; --tw-backdrop-brightness: ; --tw-backdrop-contrast: ; --tw-backdrop-grayscale: ; --tw-backdrop-hue-rotate: ; --tw-backdrop-invert: ; --tw-backdrop-opacity: ; --tw-backdrop-saturate: ; --tw-backdrop-sepia: ; --tw-contain-size: ; --tw-contain-layout: ; --tw-contain-paint: ; --tw-contain-style: ; font-weight: 600;&quot;&gt;Numero di Pixel Spostati (Delta)&lt;/span&gt;: Il sensore fornisce i cambiamenti di posizione in termini di pixel spostati dall'ultima misurazione. Questo dato è utile per calcolare la velocità di movimento e la direzione.&lt;/font&gt;&lt;/p&gt;" style="rounded=1;whiteSpace=wrap;html=1;fontSize=20;" vertex="1" parent="1">
                    <mxGeometry x="1630" y="140" width="700" height="340" as="geometry"/>
                </mxCell>
            </root>
        </mxGraphModel>
    </diagram>
    <diagram id="MhdP6rMt-a_tJVMmkf7v" name=" I/O Sensoristica &amp; error modeling">
        <mxGraphModel dx="1364" dy="839" grid="1" gridSize="10" guides="1" tooltips="1" connect="1" arrows="1" fold="1" page="1" pageScale="1" pageWidth="2336" pageHeight="1654" math="0" shadow="0">
            <root>
                <mxCell id="0"/>
                <mxCell id="1" parent="0"/>
                <mxCell id="eBNE8jRUZJI-PA19Nn8w-4" value="" style="group" parent="1" vertex="1" connectable="0">
                    <mxGeometry x="90" y="90" width="410" height="240" as="geometry"/>
                </mxCell>
                <mxCell id="p7b2ed03xJix1Ow-BVKA-2" value="" style="ellipse;whiteSpace=wrap;html=1;" parent="eBNE8jRUZJI-PA19Nn8w-4" vertex="1">
                    <mxGeometry x="25" width="120" height="80" as="geometry"/>
                </mxCell>
                <mxCell id="p7b2ed03xJix1Ow-BVKA-3" value="" style="ellipse;whiteSpace=wrap;html=1;" parent="eBNE8jRUZJI-PA19Nn8w-4" vertex="1">
                    <mxGeometry x="265" y="160" width="120" height="80" as="geometry"/>
                </mxCell>
                <mxCell id="p7b2ed03xJix1Ow-BVKA-8" style="edgeStyle=none;html=1;" parent="eBNE8jRUZJI-PA19Nn8w-4" source="p7b2ed03xJix1Ow-BVKA-2" target="p7b2ed03xJix1Ow-BVKA-3" edge="1">
                    <mxGeometry relative="1" as="geometry"/>
                </mxCell>
                <mxCell id="p7b2ed03xJix1Ow-BVKA-4" value="" style="ellipse;whiteSpace=wrap;html=1;" parent="eBNE8jRUZJI-PA19Nn8w-4" vertex="1">
                    <mxGeometry x="265" width="120" height="80" as="geometry"/>
                </mxCell>
                <mxCell id="p7b2ed03xJix1Ow-BVKA-7" style="edgeStyle=none;html=1;entryX=0;entryY=1;entryDx=0;entryDy=0;" parent="eBNE8jRUZJI-PA19Nn8w-4" source="p7b2ed03xJix1Ow-BVKA-5" target="p7b2ed03xJix1Ow-BVKA-4" edge="1">
                    <mxGeometry relative="1" as="geometry"/>
                </mxCell>
                <mxCell id="p7b2ed03xJix1Ow-BVKA-5" value="" style="ellipse;whiteSpace=wrap;html=1;" parent="eBNE8jRUZJI-PA19Nn8w-4" vertex="1">
                    <mxGeometry x="25" y="160" width="120" height="80" as="geometry"/>
                </mxCell>
                <mxCell id="p7b2ed03xJix1Ow-BVKA-9" value="&lt;font style=&quot;font-size: 20px;&quot;&gt;Tau2&lt;/font&gt;" style="text;html=1;strokeColor=none;fillColor=none;align=center;verticalAlign=middle;whiteSpace=wrap;rounded=0;" parent="eBNE8jRUZJI-PA19Nn8w-4" vertex="1">
                    <mxGeometry width="170" height="80" as="geometry"/>
                </mxCell>
                <mxCell id="eBNE8jRUZJI-PA19Nn8w-1" value="&lt;font style=&quot;font-size: 20px;&quot;&gt;Tau1&lt;/font&gt;" style="text;html=1;strokeColor=none;fillColor=none;align=center;verticalAlign=middle;whiteSpace=wrap;rounded=0;" parent="eBNE8jRUZJI-PA19Nn8w-4" vertex="1">
                    <mxGeometry x="240" width="170" height="80" as="geometry"/>
                </mxCell>
                <mxCell id="eBNE8jRUZJI-PA19Nn8w-2" value="&lt;font style=&quot;font-size: 20px;&quot;&gt;Tau3&lt;br&gt;&lt;/font&gt;" style="text;html=1;strokeColor=none;fillColor=none;align=center;verticalAlign=middle;whiteSpace=wrap;rounded=0;" parent="eBNE8jRUZJI-PA19Nn8w-4" vertex="1">
                    <mxGeometry y="160" width="170" height="80" as="geometry"/>
                </mxCell>
                <mxCell id="eBNE8jRUZJI-PA19Nn8w-3" value="&lt;font style=&quot;font-size: 20px;&quot;&gt;Tau4&lt;br&gt;&lt;/font&gt;" style="text;html=1;strokeColor=none;fillColor=none;align=center;verticalAlign=middle;whiteSpace=wrap;rounded=0;" parent="eBNE8jRUZJI-PA19Nn8w-4" vertex="1">
                    <mxGeometry x="240" y="160" width="170" height="80" as="geometry"/>
                </mxCell>
                <mxCell id="eBNE8jRUZJI-PA19Nn8w-55" value="" style="shape=flexArrow;endArrow=classic;html=1;fontSize=20;fillColor=#d80073;strokeColor=#A50040;" parent="eBNE8jRUZJI-PA19Nn8w-4" edge="1">
                    <mxGeometry width="50" height="50" relative="1" as="geometry">
                        <mxPoint x="204.5" y="110" as="sourcePoint"/>
                        <mxPoint x="204.5" y="40" as="targetPoint"/>
                    </mxGeometry>
                </mxCell>
                <mxCell id="eBNE8jRUZJI-PA19Nn8w-56" value="Tz" style="text;strokeColor=#A50040;fillColor=#d80073;html=1;fontSize=24;fontStyle=1;verticalAlign=middle;align=center;fontColor=#ffffff;" parent="eBNE8jRUZJI-PA19Nn8w-4" vertex="1">
                    <mxGeometry x="192.5" y="70" width="25" height="30" as="geometry"/>
                </mxCell>
                <mxCell id="eBNE8jRUZJI-PA19Nn8w-54" style="edgeStyle=none;html=1;fontSize=20;" parent="1" source="eBNE8jRUZJI-PA19Nn8w-34" target="eBNE8jRUZJI-PA19Nn8w-48" edge="1">
                    <mxGeometry relative="1" as="geometry"/>
                </mxCell>
                <mxCell id="eBNE8jRUZJI-PA19Nn8w-34" value="Momenti" style="swimlane;fontStyle=0;childLayout=stackLayout;horizontal=1;startSize=30;horizontalStack=0;resizeParent=1;resizeParentMax=0;resizeLast=0;collapsible=1;marginBottom=0;whiteSpace=wrap;html=1;fontSize=20;" parent="1" vertex="1">
                    <mxGeometry x="100" y="390" width="140" height="120" as="geometry">
                        <mxRectangle x="220" y="380" width="120" height="40" as="alternateBounds"/>
                    </mxGeometry>
                </mxCell>
                <mxCell id="eBNE8jRUZJI-PA19Nn8w-35" value="Tx" style="text;strokeColor=none;fillColor=none;align=left;verticalAlign=middle;spacingLeft=4;spacingRight=4;overflow=hidden;points=[[0,0.5],[1,0.5]];portConstraint=eastwest;rotatable=0;whiteSpace=wrap;html=1;fontSize=20;" parent="eBNE8jRUZJI-PA19Nn8w-34" vertex="1">
                    <mxGeometry y="30" width="140" height="30" as="geometry"/>
                </mxCell>
                <mxCell id="eBNE8jRUZJI-PA19Nn8w-36" value="Ty" style="text;strokeColor=none;fillColor=none;align=left;verticalAlign=middle;spacingLeft=4;spacingRight=4;overflow=hidden;points=[[0,0.5],[1,0.5]];portConstraint=eastwest;rotatable=0;whiteSpace=wrap;html=1;fontSize=20;" parent="eBNE8jRUZJI-PA19Nn8w-34" vertex="1">
                    <mxGeometry y="60" width="140" height="30" as="geometry"/>
                </mxCell>
                <mxCell id="eBNE8jRUZJI-PA19Nn8w-37" value="Tz" style="text;strokeColor=none;fillColor=none;align=left;verticalAlign=middle;spacingLeft=4;spacingRight=4;overflow=hidden;points=[[0,0.5],[1,0.5]];portConstraint=eastwest;rotatable=0;whiteSpace=wrap;html=1;fontSize=20;" parent="eBNE8jRUZJI-PA19Nn8w-34" vertex="1">
                    <mxGeometry y="90" width="140" height="30" as="geometry"/>
                </mxCell>
                <mxCell id="eBNE8jRUZJI-PA19Nn8w-71" style="edgeStyle=none;html=1;fontSize=20;" parent="1" source="eBNE8jRUZJI-PA19Nn8w-48" target="eBNE8jRUZJI-PA19Nn8w-67" edge="1">
                    <mxGeometry relative="1" as="geometry"/>
                </mxCell>
                <mxCell id="eBNE8jRUZJI-PA19Nn8w-48" value="Acceler Angol" style="swimlane;fontStyle=0;childLayout=stackLayout;horizontal=1;startSize=30;horizontalStack=0;resizeParent=1;resizeParentMax=0;resizeLast=0;collapsible=1;marginBottom=0;whiteSpace=wrap;html=1;fontSize=20;" parent="1" vertex="1">
                    <mxGeometry x="370" y="390" width="140" height="120" as="geometry"/>
                </mxCell>
                <mxCell id="eBNE8jRUZJI-PA19Nn8w-49" value="alpha_x" style="text;strokeColor=none;fillColor=none;align=left;verticalAlign=middle;spacingLeft=4;spacingRight=4;overflow=hidden;points=[[0,0.5],[1,0.5]];portConstraint=eastwest;rotatable=0;whiteSpace=wrap;html=1;fontSize=20;" parent="eBNE8jRUZJI-PA19Nn8w-48" vertex="1">
                    <mxGeometry y="30" width="140" height="30" as="geometry"/>
                </mxCell>
                <mxCell id="eBNE8jRUZJI-PA19Nn8w-50" value="alpha_y" style="text;strokeColor=none;fillColor=none;align=left;verticalAlign=middle;spacingLeft=4;spacingRight=4;overflow=hidden;points=[[0,0.5],[1,0.5]];portConstraint=eastwest;rotatable=0;whiteSpace=wrap;html=1;fontSize=20;" parent="eBNE8jRUZJI-PA19Nn8w-48" vertex="1">
                    <mxGeometry y="60" width="140" height="30" as="geometry"/>
                </mxCell>
                <mxCell id="eBNE8jRUZJI-PA19Nn8w-51" value="alpha_z" style="text;strokeColor=none;fillColor=none;align=left;verticalAlign=middle;spacingLeft=4;spacingRight=4;overflow=hidden;points=[[0,0.5],[1,0.5]];portConstraint=eastwest;rotatable=0;whiteSpace=wrap;html=1;fontSize=20;" parent="eBNE8jRUZJI-PA19Nn8w-48" vertex="1">
                    <mxGeometry y="90" width="140" height="30" as="geometry"/>
                </mxCell>
                <mxCell id="eBNE8jRUZJI-PA19Nn8w-58" style="edgeStyle=none;html=1;fontSize=20;" parent="1" source="eBNE8jRUZJI-PA19Nn8w-59" target="eBNE8jRUZJI-PA19Nn8w-63" edge="1">
                    <mxGeometry relative="1" as="geometry"/>
                </mxCell>
                <mxCell id="eBNE8jRUZJI-PA19Nn8w-59" value="Forze" style="swimlane;fontStyle=0;childLayout=stackLayout;horizontal=1;startSize=30;horizontalStack=0;resizeParent=1;resizeParentMax=0;resizeLast=0;collapsible=1;marginBottom=0;whiteSpace=wrap;html=1;fontSize=20;" parent="1" vertex="1">
                    <mxGeometry x="100" y="760" width="140" height="126" as="geometry">
                        <mxRectangle x="220" y="380" width="120" height="40" as="alternateBounds"/>
                    </mxGeometry>
                </mxCell>
                <mxCell id="eBNE8jRUZJI-PA19Nn8w-60" value="Tx" style="text;strokeColor=none;fillColor=none;align=left;verticalAlign=middle;spacingLeft=4;spacingRight=4;overflow=hidden;points=[[0,0.5],[1,0.5]];portConstraint=eastwest;rotatable=0;whiteSpace=wrap;html=1;fontSize=20;" parent="eBNE8jRUZJI-PA19Nn8w-59" vertex="1">
                    <mxGeometry y="30" width="140" height="32" as="geometry"/>
                </mxCell>
                <mxCell id="eBNE8jRUZJI-PA19Nn8w-61" value="Ty" style="text;strokeColor=none;fillColor=none;align=left;verticalAlign=middle;spacingLeft=4;spacingRight=4;overflow=hidden;points=[[0,0.5],[1,0.5]];portConstraint=eastwest;rotatable=0;whiteSpace=wrap;html=1;fontSize=20;" parent="eBNE8jRUZJI-PA19Nn8w-59" vertex="1">
                    <mxGeometry y="62" width="140" height="32" as="geometry"/>
                </mxCell>
                <mxCell id="eBNE8jRUZJI-PA19Nn8w-62" value="Tz" style="text;strokeColor=none;fillColor=none;align=left;verticalAlign=middle;spacingLeft=4;spacingRight=4;overflow=hidden;points=[[0,0.5],[1,0.5]];portConstraint=eastwest;rotatable=0;whiteSpace=wrap;html=1;fontSize=20;" parent="eBNE8jRUZJI-PA19Nn8w-59" vertex="1">
                    <mxGeometry y="94" width="140" height="32" as="geometry"/>
                </mxCell>
                <mxCell id="HOegu7CyY45WWCT-_pdl-13" style="edgeStyle=none;html=1;fontSize=20;startArrow=none;" parent="1" source="swlsItP9QOyUPsDrwgP_-19" target="HOegu7CyY45WWCT-_pdl-4" edge="1">
                    <mxGeometry relative="1" as="geometry"/>
                </mxCell>
                <mxCell id="eBNE8jRUZJI-PA19Nn8w-63" value="Acceler Lin" style="swimlane;fontStyle=0;childLayout=stackLayout;horizontal=1;startSize=30;horizontalStack=0;resizeParent=1;resizeParentMax=0;resizeLast=0;collapsible=1;marginBottom=0;whiteSpace=wrap;html=1;fontSize=20;fillColor=#008a00;fontColor=#ffffff;strokeColor=#005700;" parent="1" vertex="1">
                    <mxGeometry x="370" y="760" width="140" height="126" as="geometry"/>
                </mxCell>
                <mxCell id="eBNE8jRUZJI-PA19Nn8w-64" value="a_x" style="text;strokeColor=none;fillColor=none;align=left;verticalAlign=middle;spacingLeft=4;spacingRight=4;overflow=hidden;points=[[0,0.5],[1,0.5]];portConstraint=eastwest;rotatable=0;whiteSpace=wrap;html=1;fontSize=20;" parent="eBNE8jRUZJI-PA19Nn8w-63" vertex="1">
                    <mxGeometry y="30" width="140" height="32" as="geometry"/>
                </mxCell>
                <mxCell id="eBNE8jRUZJI-PA19Nn8w-65" value="a_y" style="text;strokeColor=none;fillColor=none;align=left;verticalAlign=middle;spacingLeft=4;spacingRight=4;overflow=hidden;points=[[0,0.5],[1,0.5]];portConstraint=eastwest;rotatable=0;whiteSpace=wrap;html=1;fontSize=20;" parent="eBNE8jRUZJI-PA19Nn8w-63" vertex="1">
                    <mxGeometry y="62" width="140" height="32" as="geometry"/>
                </mxCell>
                <mxCell id="eBNE8jRUZJI-PA19Nn8w-66" value="a_z" style="text;strokeColor=none;fillColor=none;align=left;verticalAlign=middle;spacingLeft=4;spacingRight=4;overflow=hidden;points=[[0,0.5],[1,0.5]];portConstraint=eastwest;rotatable=0;whiteSpace=wrap;html=1;fontSize=20;" parent="eBNE8jRUZJI-PA19Nn8w-63" vertex="1">
                    <mxGeometry y="94" width="140" height="32" as="geometry"/>
                </mxCell>
                <mxCell id="HOegu7CyY45WWCT-_pdl-1" style="edgeStyle=none;html=1;fontSize=20;" parent="1" source="eBNE8jRUZJI-PA19Nn8w-67" target="Ln8mY__tDbSkuhwt3RIj-1" edge="1">
                    <mxGeometry relative="1" as="geometry"/>
                </mxCell>
                <mxCell id="eBNE8jRUZJI-PA19Nn8w-67" value="Veloc Angol" style="swimlane;fontStyle=0;childLayout=stackLayout;horizontal=1;startSize=30;horizontalStack=0;resizeParent=1;resizeParentMax=0;resizeLast=0;collapsible=1;marginBottom=0;whiteSpace=wrap;html=1;fontSize=20;fillColor=#008a00;fontColor=#ffffff;strokeColor=#005700;" parent="1" vertex="1">
                    <mxGeometry x="620" y="390" width="140" height="120" as="geometry"/>
                </mxCell>
                <mxCell id="eBNE8jRUZJI-PA19Nn8w-68" value="p" style="text;strokeColor=none;fillColor=none;align=left;verticalAlign=middle;spacingLeft=4;spacingRight=4;overflow=hidden;points=[[0,0.5],[1,0.5]];portConstraint=eastwest;rotatable=0;whiteSpace=wrap;html=1;fontSize=20;" parent="eBNE8jRUZJI-PA19Nn8w-67" vertex="1">
                    <mxGeometry y="30" width="140" height="30" as="geometry"/>
                </mxCell>
                <mxCell id="eBNE8jRUZJI-PA19Nn8w-69" value="q" style="text;strokeColor=none;fillColor=none;align=left;verticalAlign=middle;spacingLeft=4;spacingRight=4;overflow=hidden;points=[[0,0.5],[1,0.5]];portConstraint=eastwest;rotatable=0;whiteSpace=wrap;html=1;fontSize=20;" parent="eBNE8jRUZJI-PA19Nn8w-67" vertex="1">
                    <mxGeometry y="60" width="140" height="30" as="geometry"/>
                </mxCell>
                <mxCell id="eBNE8jRUZJI-PA19Nn8w-70" value="r" style="text;strokeColor=none;fillColor=none;align=left;verticalAlign=middle;spacingLeft=4;spacingRight=4;overflow=hidden;points=[[0,0.5],[1,0.5]];portConstraint=eastwest;rotatable=0;whiteSpace=wrap;html=1;fontSize=20;" parent="eBNE8jRUZJI-PA19Nn8w-67" vertex="1">
                    <mxGeometry y="90" width="140" height="30" as="geometry"/>
                </mxCell>
                <mxCell id="Ln8mY__tDbSkuhwt3RIj-1" value="Attitude" style="swimlane;fontStyle=0;childLayout=stackLayout;horizontal=1;startSize=30;horizontalStack=0;resizeParent=1;resizeParentMax=0;resizeLast=0;collapsible=1;marginBottom=0;whiteSpace=wrap;html=1;fontSize=20;fillColor=#6a00ff;fontColor=#ffffff;strokeColor=#3700CC;" parent="1" vertex="1">
                    <mxGeometry x="870" y="390" width="140" height="120" as="geometry"/>
                </mxCell>
                <mxCell id="Ln8mY__tDbSkuhwt3RIj-2" value="&lt;font face=&quot;KaTeX_Math&quot; color=&quot;#ececec&quot;&gt;&lt;span style=&quot;font-size: 19.36px;&quot;&gt;&lt;i&gt;ϕ&lt;/i&gt;&lt;/span&gt;&lt;/font&gt;" style="text;strokeColor=none;fillColor=none;align=left;verticalAlign=middle;spacingLeft=4;spacingRight=4;overflow=hidden;points=[[0,0.5],[1,0.5]];portConstraint=eastwest;rotatable=0;whiteSpace=wrap;html=1;fontSize=20;" parent="Ln8mY__tDbSkuhwt3RIj-1" vertex="1">
                    <mxGeometry y="30" width="140" height="30" as="geometry"/>
                </mxCell>
                <mxCell id="Ln8mY__tDbSkuhwt3RIj-3" value="&lt;font face=&quot;KaTeX_Math&quot; color=&quot;#ececec&quot;&gt;&lt;span style=&quot;font-size: 19.36px;&quot;&gt;𝜃&lt;/span&gt;&lt;/font&gt;" style="text;strokeColor=none;fillColor=none;align=left;verticalAlign=middle;spacingLeft=4;spacingRight=4;overflow=hidden;points=[[0,0.5],[1,0.5]];portConstraint=eastwest;rotatable=0;whiteSpace=wrap;html=1;fontSize=20;" parent="Ln8mY__tDbSkuhwt3RIj-1" vertex="1">
                    <mxGeometry y="60" width="140" height="30" as="geometry"/>
                </mxCell>
                <mxCell id="Ln8mY__tDbSkuhwt3RIj-4" value="&lt;font face=&quot;KaTeX_Math&quot; color=&quot;#ececec&quot;&gt;&lt;span style=&quot;font-size: 19.36px;&quot;&gt;&lt;i&gt;ψ&lt;/i&gt;&lt;/span&gt;&lt;/font&gt;" style="text;align=left;verticalAlign=middle;spacingLeft=4;spacingRight=4;overflow=hidden;points=[[0,0.5],[1,0.5]];portConstraint=eastwest;rotatable=0;whiteSpace=wrap;html=1;fontSize=20;fillColor=#647687;fontColor=#ffffff;strokeColor=#314354;" parent="Ln8mY__tDbSkuhwt3RIj-1" vertex="1">
                    <mxGeometry y="90" width="140" height="30" as="geometry"/>
                </mxCell>
                <mxCell id="HOegu7CyY45WWCT-_pdl-3" style="edgeStyle=none;html=1;fontSize=20;startArrow=none;" parent="1" source="tbYBvplxrhrj1Jkki0uS-3" target="HOegu7CyY45WWCT-_pdl-8" edge="1">
                    <mxGeometry relative="1" as="geometry"/>
                </mxCell>
                <mxCell id="HOegu7CyY45WWCT-_pdl-4" value="Velocita Lin" style="swimlane;fontStyle=0;childLayout=stackLayout;horizontal=1;startSize=30;horizontalStack=0;resizeParent=1;resizeParentMax=0;resizeLast=0;collapsible=1;marginBottom=0;whiteSpace=wrap;html=1;fontSize=20;fillColor=#6a00ff;fontColor=#ffffff;strokeColor=#3700CC;" parent="1" vertex="1">
                    <mxGeometry x="620" y="760" width="140" height="126" as="geometry"/>
                </mxCell>
                <mxCell id="HOegu7CyY45WWCT-_pdl-5" value="V_x" style="text;strokeColor=none;fillColor=none;align=left;verticalAlign=middle;spacingLeft=4;spacingRight=4;overflow=hidden;points=[[0,0.5],[1,0.5]];portConstraint=eastwest;rotatable=0;whiteSpace=wrap;html=1;fontSize=20;" parent="HOegu7CyY45WWCT-_pdl-4" vertex="1">
                    <mxGeometry y="30" width="140" height="32" as="geometry"/>
                </mxCell>
                <mxCell id="HOegu7CyY45WWCT-_pdl-6" value="V_y" style="text;strokeColor=none;fillColor=none;align=left;verticalAlign=middle;spacingLeft=4;spacingRight=4;overflow=hidden;points=[[0,0.5],[1,0.5]];portConstraint=eastwest;rotatable=0;whiteSpace=wrap;html=1;fontSize=20;" parent="HOegu7CyY45WWCT-_pdl-4" vertex="1">
                    <mxGeometry y="62" width="140" height="32" as="geometry"/>
                </mxCell>
                <mxCell id="HOegu7CyY45WWCT-_pdl-7" value="V_z" style="text;strokeColor=none;fillColor=none;align=left;verticalAlign=middle;spacingLeft=4;spacingRight=4;overflow=hidden;points=[[0,0.5],[1,0.5]];portConstraint=eastwest;rotatable=0;whiteSpace=wrap;html=1;fontSize=20;" parent="HOegu7CyY45WWCT-_pdl-4" vertex="1">
                    <mxGeometry y="94" width="140" height="32" as="geometry"/>
                </mxCell>
                <mxCell id="HOegu7CyY45WWCT-_pdl-8" value="Posizione" style="swimlane;fontStyle=0;childLayout=stackLayout;horizontal=1;startSize=30;horizontalStack=0;resizeParent=1;resizeParentMax=0;resizeLast=0;collapsible=1;marginBottom=0;whiteSpace=wrap;html=1;fontSize=20;fillColor=#6a00ff;fontColor=#ffffff;strokeColor=#3700CC;" parent="1" vertex="1">
                    <mxGeometry x="870" y="760" width="140" height="126" as="geometry"/>
                </mxCell>
                <mxCell id="HOegu7CyY45WWCT-_pdl-9" value="x" style="text;strokeColor=none;fillColor=none;align=left;verticalAlign=middle;spacingLeft=4;spacingRight=4;overflow=hidden;points=[[0,0.5],[1,0.5]];portConstraint=eastwest;rotatable=0;whiteSpace=wrap;html=1;fontSize=20;" parent="HOegu7CyY45WWCT-_pdl-8" vertex="1">
                    <mxGeometry y="30" width="140" height="32" as="geometry"/>
                </mxCell>
                <mxCell id="HOegu7CyY45WWCT-_pdl-10" value="y" style="text;strokeColor=none;fillColor=none;align=left;verticalAlign=middle;spacingLeft=4;spacingRight=4;overflow=hidden;points=[[0,0.5],[1,0.5]];portConstraint=eastwest;rotatable=0;whiteSpace=wrap;html=1;fontSize=20;" parent="HOegu7CyY45WWCT-_pdl-8" vertex="1">
                    <mxGeometry y="62" width="140" height="32" as="geometry"/>
                </mxCell>
                <mxCell id="HOegu7CyY45WWCT-_pdl-11" value="z" style="text;strokeColor=#005700;fillColor=#008a00;align=left;verticalAlign=middle;spacingLeft=4;spacingRight=4;overflow=hidden;points=[[0,0.5],[1,0.5]];portConstraint=eastwest;rotatable=0;whiteSpace=wrap;html=1;fontSize=20;fontColor=#ffffff;" parent="HOegu7CyY45WWCT-_pdl-8" vertex="1">
                    <mxGeometry y="94" width="140" height="32" as="geometry"/>
                </mxCell>
                <mxCell id="MN0F-cwUaFA2XjnXc23X-3" style="edgeStyle=none;html=1;fontFamily=Helvetica;fontSize=25;fontColor=rgb(240, 240, 240);" parent="1" source="MN0F-cwUaFA2XjnXc23X-2" target="eBNE8jRUZJI-PA19Nn8w-63" edge="1">
                    <mxGeometry relative="1" as="geometry"/>
                </mxCell>
                <mxCell id="MN0F-cwUaFA2XjnXc23X-4" style="edgeStyle=none;html=1;fontFamily=Helvetica;fontSize=25;fontColor=rgb(240, 240, 240);" parent="1" source="MN0F-cwUaFA2XjnXc23X-2" target="eBNE8jRUZJI-PA19Nn8w-67" edge="1">
                    <mxGeometry relative="1" as="geometry"/>
                </mxCell>
                <mxCell id="MN0F-cwUaFA2XjnXc23X-2" value="IMU measurements" style="rounded=1;whiteSpace=wrap;html=1;strokeColor=#005700;fontFamily=Helvetica;fontSize=25;fontColor=#ffffff;fillColor=#008a00;" parent="1" vertex="1">
                    <mxGeometry x="430" y="610" width="260" height="60" as="geometry"/>
                </mxCell>
                <mxCell id="MN0F-cwUaFA2XjnXc23X-7" style="edgeStyle=none;html=1;fontFamily=Helvetica;fontSize=25;fontColor=rgb(240, 240, 240);" parent="1" source="MN0F-cwUaFA2XjnXc23X-6" target="Ln8mY__tDbSkuhwt3RIj-4" edge="1">
                    <mxGeometry relative="1" as="geometry"/>
                </mxCell>
                <mxCell id="MN0F-cwUaFA2XjnXc23X-6" value="Non abbiamo bussola&amp;nbsp;" style="rounded=1;whiteSpace=wrap;html=1;strokeColor=#314354;fontFamily=Helvetica;fontSize=25;fontColor=#ffffff;fillColor=#647687;" parent="1" vertex="1">
                    <mxGeometry x="930" y="540" width="270" height="40" as="geometry"/>
                </mxCell>
                <mxCell id="o6O87YIQzdOwvQE-HgKT-2" style="edgeStyle=none;html=1;fontFamily=Helvetica;fontSize=19;fontColor=rgb(240, 240, 240);" parent="1" source="o6O87YIQzdOwvQE-HgKT-1" target="eBNE8jRUZJI-PA19Nn8w-67" edge="1">
                    <mxGeometry relative="1" as="geometry"/>
                </mxCell>
                <mxCell id="o6O87YIQzdOwvQE-HgKT-1" value="&lt;font style=&quot;font-size: 19px;&quot;&gt;gyro&lt;/font&gt;" style="rounded=1;whiteSpace=wrap;html=1;strokeColor=#005700;fontFamily=Helvetica;fontSize=25;fontColor=#ffffff;fillColor=#008a00;" parent="1" vertex="1">
                    <mxGeometry x="710" y="530" width="70" height="30" as="geometry"/>
                </mxCell>
                <mxCell id="o6O87YIQzdOwvQE-HgKT-7" style="edgeStyle=none;html=1;fontFamily=Helvetica;fontSize=19;fontColor=rgb(240, 240, 240);" parent="1" source="o6O87YIQzdOwvQE-HgKT-3" target="eBNE8jRUZJI-PA19Nn8w-63" edge="1">
                    <mxGeometry relative="1" as="geometry"/>
                </mxCell>
                <mxCell id="o6O87YIQzdOwvQE-HgKT-3" value="&lt;font style=&quot;font-size: 19px;&quot;&gt;accelerometer&lt;/font&gt;" style="rounded=1;whiteSpace=wrap;html=1;strokeColor=#005700;fontFamily=Helvetica;fontSize=25;fontColor=#ffffff;fillColor=#008a00;" parent="1" vertex="1">
                    <mxGeometry x="280" y="700" width="150" height="30" as="geometry"/>
                </mxCell>
                <mxCell id="o6O87YIQzdOwvQE-HgKT-5" style="edgeStyle=none;html=1;fontFamily=Helvetica;fontSize=19;fontColor=rgb(240, 240, 240);" parent="1" source="o6O87YIQzdOwvQE-HgKT-4" target="HOegu7CyY45WWCT-_pdl-11" edge="1">
                    <mxGeometry relative="1" as="geometry"/>
                </mxCell>
                <mxCell id="o6O87YIQzdOwvQE-HgKT-4" value="&lt;font style=&quot;font-size: 19px;&quot;&gt;barometro&lt;br&gt;(con che precis?)&lt;br&gt;&lt;/font&gt;" style="rounded=1;whiteSpace=wrap;html=1;strokeColor=#005700;fontFamily=Helvetica;fontSize=25;fontColor=#ffffff;fillColor=#008a00;" parent="1" vertex="1">
                    <mxGeometry x="975" y="910" width="180" height="60" as="geometry"/>
                </mxCell>
                <mxCell id="swlsItP9QOyUPsDrwgP_-6" value="" style="edgeStyle=none;html=1;" edge="1" parent="1" source="6Qj5m0dzicFnzHalImhd-6" target="swlsItP9QOyUPsDrwgP_-1">
                    <mxGeometry relative="1" as="geometry"/>
                </mxCell>
                <mxCell id="swlsItP9QOyUPsDrwgP_-7" value="" style="edgeStyle=none;html=1;" edge="1" parent="1" source="6Qj5m0dzicFnzHalImhd-6" target="swlsItP9QOyUPsDrwgP_-1">
                    <mxGeometry relative="1" as="geometry"/>
                </mxCell>
                <mxCell id="swlsItP9QOyUPsDrwgP_-8" value="" style="edgeStyle=none;html=1;" edge="1" parent="1" source="6Qj5m0dzicFnzHalImhd-6" target="swlsItP9QOyUPsDrwgP_-1">
                    <mxGeometry relative="1" as="geometry"/>
                </mxCell>
                <mxCell id="swlsItP9QOyUPsDrwgP_-9" value="" style="edgeStyle=none;html=1;" edge="1" parent="1" source="6Qj5m0dzicFnzHalImhd-6" target="swlsItP9QOyUPsDrwgP_-1">
                    <mxGeometry relative="1" as="geometry"/>
                </mxCell>
                <mxCell id="swlsItP9QOyUPsDrwgP_-12" style="edgeStyle=none;html=1;" edge="1" parent="1" source="6Qj5m0dzicFnzHalImhd-6" target="swlsItP9QOyUPsDrwgP_-11">
                    <mxGeometry relative="1" as="geometry"/>
                </mxCell>
                <mxCell id="swlsItP9QOyUPsDrwgP_-14" style="edgeStyle=none;html=1;" edge="1" parent="1" source="6Qj5m0dzicFnzHalImhd-6" target="swlsItP9QOyUPsDrwgP_-13">
                    <mxGeometry relative="1" as="geometry"/>
                </mxCell>
                <mxCell id="6Qj5m0dzicFnzHalImhd-6" value="ODOMETRIA" style="rounded=1;whiteSpace=wrap;html=1;strokeColor=#3700CC;fontFamily=Helvetica;fontSize=25;fontColor=#ffffff;fillColor=#6a00ff;" vertex="1" parent="1">
                    <mxGeometry x="790" y="610" width="200" height="50" as="geometry"/>
                </mxCell>
                <mxCell id="tbYBvplxrhrj1Jkki0uS-4" value="" style="edgeStyle=none;html=1;fontSize=20;endArrow=none;" edge="1" parent="1" source="HOegu7CyY45WWCT-_pdl-4" target="tbYBvplxrhrj1Jkki0uS-3">
                    <mxGeometry relative="1" as="geometry">
                        <mxPoint x="760" y="823" as="sourcePoint"/>
                        <mxPoint x="870" y="823" as="targetPoint"/>
                    </mxGeometry>
                </mxCell>
                <mxCell id="tbYBvplxrhrj1Jkki0uS-6" style="edgeStyle=none;html=1;entryX=0.5;entryY=1;entryDx=0;entryDy=0;" edge="1" parent="1" source="tbYBvplxrhrj1Jkki0uS-3" target="6Qj5m0dzicFnzHalImhd-6">
                    <mxGeometry relative="1" as="geometry"/>
                </mxCell>
                <mxCell id="tbYBvplxrhrj1Jkki0uS-3" value="" style="shape=image;verticalLabelPosition=bottom;labelBackgroundColor=default;verticalAlign=top;aspect=fixed;imageAspect=0;image=https://banner2.cleanpng.com/20180711/zpr/kisspng-integral-symbol-surface-integral-mathematics-calcu-integral-symbol-5b45906ad71f87.3187015415312856108812.jpg;" vertex="1" parent="1">
                    <mxGeometry x="790" y="806.5" width="43.66" height="33" as="geometry"/>
                </mxCell>
                <mxCell id="tbYBvplxrhrj1Jkki0uS-7" style="edgeStyle=none;html=1;entryX=0.5;entryY=0;entryDx=0;entryDy=0;" edge="1" parent="1" source="tbYBvplxrhrj1Jkki0uS-5" target="6Qj5m0dzicFnzHalImhd-6">
                    <mxGeometry relative="1" as="geometry"/>
                </mxCell>
                <mxCell id="swlsItP9QOyUPsDrwgP_-16" style="edgeStyle=none;html=1;" edge="1" parent="1" source="tbYBvplxrhrj1Jkki0uS-5" target="swlsItP9QOyUPsDrwgP_-15">
                    <mxGeometry relative="1" as="geometry"/>
                </mxCell>
                <mxCell id="tbYBvplxrhrj1Jkki0uS-5" value="" style="shape=image;verticalLabelPosition=bottom;labelBackgroundColor=default;verticalAlign=top;aspect=fixed;imageAspect=0;image=https://banner2.cleanpng.com/20180711/zpr/kisspng-integral-symbol-surface-integral-mathematics-calcu-integral-symbol-5b45906ad71f87.3187015415312856108812.jpg;" vertex="1" parent="1">
                    <mxGeometry x="790" y="433.5" width="43.66" height="33" as="geometry"/>
                </mxCell>
                <mxCell id="swlsItP9QOyUPsDrwgP_-3" value="" style="group" vertex="1" connectable="0" parent="1">
                    <mxGeometry x="900" y="680" width="220" height="60" as="geometry"/>
                </mxCell>
                <mxCell id="swlsItP9QOyUPsDrwgP_-1" value="come &lt;br&gt;modellizzare&amp;nbsp; &amp;nbsp; &amp;nbsp; &amp;nbsp; ?" style="rounded=1;whiteSpace=wrap;html=1;strokeColor=#3700CC;fontFamily=Helvetica;fontSize=25;fontColor=#ffffff;fillColor=#6a00ff;" vertex="1" parent="swlsItP9QOyUPsDrwgP_-3">
                    <mxGeometry width="220" height="60" as="geometry"/>
                </mxCell>
                <mxCell id="swlsItP9QOyUPsDrwgP_-2" value="" style="shape=image;verticalLabelPosition=bottom;labelBackgroundColor=default;verticalAlign=top;aspect=fixed;imageAspect=0;image=https://banner2.cleanpng.com/20180711/zpr/kisspng-integral-symbol-surface-integral-mathematics-calcu-integral-symbol-5b45906ad71f87.3187015415312856108812.jpg;" vertex="1" parent="swlsItP9QOyUPsDrwgP_-3">
                    <mxGeometry x="159" y="33" width="30.43" height="23" as="geometry"/>
                </mxCell>
                <mxCell id="swlsItP9QOyUPsDrwgP_-11" value="KALMAN FILTER:&lt;br&gt;per stimare meglio l'odometria.&lt;br&gt;si basa sui dati dell'IMU&lt;br&gt;riduce la deriva" style="rounded=1;whiteSpace=wrap;html=1;strokeColor=#3700CC;fontFamily=Helvetica;fontSize=25;fontColor=#ffffff;fillColor=#6a00ff;" vertex="1" parent="1">
                    <mxGeometry x="1320" y="480" width="360" height="150" as="geometry"/>
                </mxCell>
                <mxCell id="swlsItP9QOyUPsDrwgP_-13" value="MODELLO DI NOISE&lt;br&gt;vedi modelli" style="rounded=1;whiteSpace=wrap;html=1;strokeColor=#3700CC;fontFamily=Helvetica;fontSize=25;fontColor=#ffffff;fillColor=#6a00ff;" vertex="1" parent="1">
                    <mxGeometry x="1320" y="660" width="310" height="80" as="geometry"/>
                </mxCell>
                <mxCell id="swlsItP9QOyUPsDrwgP_-15" value="can be improved with quaternions" style="rounded=1;whiteSpace=wrap;html=1;strokeColor=#3700CC;fontFamily=Helvetica;fontSize=25;fontColor=#ffffff;fillColor=#6a00ff;" vertex="1" parent="1">
                    <mxGeometry x="775" y="260" width="205" height="70" as="geometry"/>
                </mxCell>
                <mxCell id="swlsItP9QOyUPsDrwgP_-17" value="GAUSSIANO" style="rounded=1;whiteSpace=wrap;html=1;strokeColor=#3700CC;fontFamily=Helvetica;fontSize=25;fontColor=#ffffff;fillColor=#6a00ff;" vertex="1" parent="1">
                    <mxGeometry x="1310" y="806.5" width="200" height="50" as="geometry"/>
                </mxCell>
                <mxCell id="swlsItP9QOyUPsDrwgP_-18" value="modello DRIFT" style="rounded=1;whiteSpace=wrap;html=1;strokeColor=#3700CC;fontFamily=Helvetica;fontSize=25;fontColor=#ffffff;fillColor=#6a00ff;" vertex="1" parent="1">
                    <mxGeometry x="1610" y="806.5" width="200" height="50" as="geometry"/>
                </mxCell>
                <mxCell id="swlsItP9QOyUPsDrwgP_-20" value="" style="edgeStyle=none;html=1;fontSize=20;endArrow=none;" edge="1" parent="1" source="eBNE8jRUZJI-PA19Nn8w-63" target="swlsItP9QOyUPsDrwgP_-19">
                    <mxGeometry relative="1" as="geometry">
                        <mxPoint x="510" y="823" as="sourcePoint"/>
                        <mxPoint x="620" y="823" as="targetPoint"/>
                    </mxGeometry>
                </mxCell>
                <mxCell id="swlsItP9QOyUPsDrwgP_-22" style="edgeStyle=none;html=1;fontSize=20;" edge="1" parent="1" source="swlsItP9QOyUPsDrwgP_-19" target="swlsItP9QOyUPsDrwgP_-21">
                    <mxGeometry relative="1" as="geometry"/>
                </mxCell>
                <mxCell id="swlsItP9QOyUPsDrwgP_-19" value="" style="shape=image;verticalLabelPosition=bottom;labelBackgroundColor=default;verticalAlign=top;aspect=fixed;imageAspect=0;image=https://banner2.cleanpng.com/20180711/zpr/kisspng-integral-symbol-surface-integral-mathematics-calcu-integral-symbol-5b45906ad71f87.3187015415312856108812.jpg;" vertex="1" parent="1">
                    <mxGeometry x="540" y="806.5" width="43.66" height="33" as="geometry"/>
                </mxCell>
                <mxCell id="swlsItP9QOyUPsDrwgP_-21" value="&lt;font style=&quot;font-size: 20px;&quot;&gt;errori di deriva&lt;/font&gt;" style="rounded=1;whiteSpace=wrap;html=1;strokeColor=#6F0000;fontFamily=Helvetica;fontSize=25;fontColor=#ffffff;fillColor=#a20025;" vertex="1" parent="1">
                    <mxGeometry x="481.83" y="910" width="160" height="30" as="geometry"/>
                </mxCell>
                <mxCell id="swlsItP9QOyUPsDrwgP_-23" value="ODOMETRIA" style="rounded=1;whiteSpace=wrap;html=1;strokeColor=#3700CC;fontFamily=Helvetica;fontSize=25;fontColor=#ffffff;fillColor=#6a00ff;" vertex="1" parent="1">
                    <mxGeometry x="1190" y="140" width="200" height="50" as="geometry"/>
                </mxCell>
                <mxCell id="swlsItP9QOyUPsDrwgP_-25" value="&lt;span style=&quot;color: rgb(236, 236, 236); font-family: Söhne, ui-sans-serif, system-ui, -apple-system, &amp;quot;Segoe UI&amp;quot;, Roboto, Ubuntu, Cantarell, &amp;quot;Noto Sans&amp;quot;, sans-serif, &amp;quot;Helvetica Neue&amp;quot;, Arial, &amp;quot;Apple Color Emoji&amp;quot;, &amp;quot;Segoe UI Emoji&amp;quot;, &amp;quot;Segoe UI Symbol&amp;quot;, &amp;quot;Noto Color Emoji&amp;quot;; font-size: 16px; font-style: normal; font-variant-ligatures: normal; font-variant-caps: normal; font-weight: 400; letter-spacing: normal; orphans: 2; text-align: start; text-indent: 0px; text-transform: none; widows: 2; word-spacing: 0px; -webkit-text-stroke-width: 0px; background-color: rgb(33, 33, 33); text-decoration-thickness: initial; text-decoration-style: initial; text-decoration-color: initial; float: none; display: inline !important;&quot;&gt;stima della posizione basata su&amp;nbsp;&lt;/span&gt;" style="rounded=1;whiteSpace=wrap;html=1;fontSize=20;" vertex="1" parent="1">
                    <mxGeometry x="1190" y="190" width="200" height="130" as="geometry"/>
                </mxCell>
                <mxCell id="BmZWJ9ZOXo12WWG4VwvL-1" value="SLAM" style="shape=ext;double=1;rounded=1;whiteSpace=wrap;html=1;fontSize=18;fillColor=#e3c800;fontColor=#000000;strokeColor=#B09500;" vertex="1" parent="1">
                    <mxGeometry x="185" y="1060" width="220" height="72.5" as="geometry"/>
                </mxCell>
                <mxCell id="BmZWJ9ZOXo12WWG4VwvL-2" value="&lt;font color=&quot;#d6ffff&quot;&gt;La &quot;Position Estimation&quot; in combinazione con SLAM (Simultaneous Localization and Mapping) si riferisce alla capacità di determinare la posizione e l'orientamento di un agente mobile (come un robot o un veicolo autonomo) all'interno di un ambiente sconosciuto, contemporaneamente alla costruzione di una mappa di quell'ambiente.&lt;/font&gt;" style="rounded=1;whiteSpace=wrap;html=1;labelBackgroundColor=none;fontSize=22;fontColor=#000000;" vertex="1" parent="1">
                    <mxGeometry x="70" y="1132.5" width="460" height="240" as="geometry"/>
                </mxCell>
            </root>
        </mxGraphModel>
    </diagram>
</mxfile>